<svg width="38" height="38" viewBox="0 0 38 38" fill="none" xmlns="http://www.w3.org/2000/svg">
<circle cx="19.1841" cy="19.0591" r="18.7192" fill="#E5F0FF"/>
<path d="M7.79334 17.2458C7.79334 16.7959 7.98146 16.3624 8.32499 16.0598L12.1774 12.5673C12.7827 12.0192 13.7151 12.0192 14.3204 12.5673L18.1892 16.0598C18.5245 16.3624 18.7208 16.7959 18.7208 17.2458V23.4211C18.7208 24.3045 18.001 25.0243 17.1177 25.0243H9.38829C8.50493 25.0243 7.78516 24.3045 7.78516 23.4211V17.2458H7.79334Z" fill="#3778FE"/>
<path d="M19.6602 14.5641C19.6602 13.3535 20.9443 12.5847 22.0158 13.1491L24.3714 14.4087C24.8458 14.6622 25.4102 14.6622 25.8764 14.4087L28.232 13.1491C29.2953 12.5765 30.5876 13.3535 30.5876 14.5641V23.4222C30.5876 24.3056 29.8679 25.0253 28.9845 25.0253H21.2633C20.3799 25.0253 19.6602 24.3056 19.6602 23.4222V14.5641Z" fill="#00CBC4"/>
</svg>
