<svg width="30" height="30" viewBox="0 0 30 30" fill="none" xmlns="http://www.w3.org/2000/svg">
<path d="M22.4234 15.8656C22.4505 13.7643 23.5789 11.7761 25.3691 10.6755C24.2398 9.06261 22.3482 8.03998 20.3801 7.97841C18.2811 7.75809 16.2462 9.23445 15.1765 9.23445C14.0862 9.23445 12.4393 8.00029 10.6659 8.03677C8.35433 8.11145 6.19937 9.42568 5.07475 11.4466C2.65725 15.6321 4.46049 21.7834 6.77625 25.1667C7.93487 26.8234 9.28897 28.674 11.0608 28.6083C12.7946 28.5364 13.4422 27.5027 15.535 27.5027C17.6085 27.5027 18.216 28.6083 20.0238 28.5666C21.8843 28.5364 23.0564 26.9026 24.1744 25.2302C25.0069 24.0497 25.6475 22.7451 26.0724 21.3645C23.886 20.4398 22.426 18.2395 22.4234 15.8656Z" fill="white"/>
<path d="M19.0088 5.75341C20.0232 4.53565 20.523 2.97043 20.402 1.39014C18.8522 1.55291 17.4206 2.29361 16.3925 3.46465C15.3871 4.60881 14.8639 6.1465 14.9629 7.66639C16.5132 7.68235 18.0373 6.96173 19.0088 5.75341Z" fill="white"/>
</svg>
