<svg width="31" height="30" viewBox="0 0 31 30" fill="none" xmlns="http://www.w3.org/2000/svg">
<path d="M14.6955 14.3909L3.45703 26.3192C3.45745 26.3217 3.4583 26.3238 3.45872 26.3263C3.80338 27.6214 4.98639 28.5752 6.39046 28.5752C6.95172 28.5752 7.47868 28.4235 7.93059 28.1571L7.96648 28.136L20.6169 20.8363L14.6955 14.3909Z" fill="#EA4335"/>
<path d="M26.0647 12.3596L26.054 12.3522L20.5925 9.18613L14.4395 14.6613L20.6139 20.835L26.0466 17.7003C26.9991 17.1861 27.6456 16.1821 27.6456 15.0242C27.6456 13.8746 27.0077 12.8755 26.0647 12.3596Z" fill="#FBBC04"/>
<path d="M3.45659 3.67982C3.38903 3.92895 3.35352 4.18989 3.35352 4.46087V25.5388C3.35352 25.8093 3.3886 26.0711 3.45701 26.3193L15.0823 14.6961L3.45659 3.67982Z" fill="#4285F4"/>
<path d="M14.7779 15L20.5949 9.18466L7.95885 1.85854C7.49956 1.58345 6.96352 1.42469 6.3899 1.42469C4.98584 1.42469 3.80124 2.38012 3.45648 3.67693C3.45605 3.67819 3.45605 3.67904 3.45605 3.6802L14.7779 15Z" fill="#34A853"/>
</svg>
