<svg width="52" height="51" viewBox="0 0 52 51" fill="none" xmlns="http://www.w3.org/2000/svg">
<path d="M3.5 24.0416C3.5 21.4709 4.59933 19.0228 6.52073 17.3149L22.0138 3.54327C24.2871 1.52255 27.7129 1.52255 29.9862 3.54327L45.4793 17.3149C47.4007 19.0228 48.5 21.4709 48.5 24.0416V39C48.5 43.9706 44.4706 48 39.5 48H12.5C7.52944 48 3.5 43.9706 3.5 39V24.0416Z" stroke="url(#paint0_linear_1783_5897)" stroke-width="3"/>
<path d="M21.1934 35.1758C17.8887 35.1758 15.8672 32.8115 15.8672 28.6367C15.8672 24.4619 17.8887 22.0977 21.1934 22.0977C24.498 22.0977 26.5283 24.4795 26.5195 28.6367C26.5283 32.8203 24.498 35.1758 21.1934 35.1758ZM18.9434 28.6367C18.9346 31.458 19.8398 32.7324 21.1934 32.7324C22.5469 32.7324 23.4521 31.458 23.4434 28.6367C23.4434 25.8594 22.5469 24.5322 21.1934 24.5234C19.8486 24.5322 18.9521 25.8594 18.9434 28.6367ZM34.0781 22.2734V35H31.0723V25.0859H31.002L28.1367 26.8438V24.2422L31.2832 22.2734H34.0781Z" fill="#3778FE"/>
<defs>
<linearGradient id="paint0_linear_1783_5897" x1="3.5" y1="0" x2="58.8941" y2="24.4794" gradientUnits="userSpaceOnUse">
<stop stop-color="#3C7AF9"/>
<stop offset="1" stop-color="#2061E7"/>
</linearGradient>
</defs>
</svg>
