<svg width="52" height="51" viewBox="0 0 52 51" fill="none" xmlns="http://www.w3.org/2000/svg">
<path d="M3.5 24.0416C3.5 21.4709 4.59933 19.0228 6.52073 17.3149L22.0138 3.54327C24.2871 1.52255 27.7129 1.52255 29.9862 3.54327L45.4793 17.3149C47.4007 19.0228 48.5 21.4709 48.5 24.0416V39C48.5 43.9706 44.4706 48 39.5 48H12.5C7.52944 48 3.5 43.9706 3.5 39V24.0416Z" stroke="url(#paint0_linear_1783_5863)" stroke-width="3"/>
<path d="M19.9883 35.1758C16.6836 35.1758 14.6621 32.8115 14.6621 28.6367C14.6621 24.4619 16.6836 22.0977 19.9883 22.0977C23.293 22.0977 25.3232 24.4795 25.3145 28.6367C25.3232 32.8203 23.293 35.1758 19.9883 35.1758ZM17.7383 28.6367C17.7295 31.458 18.6348 32.7324 19.9883 32.7324C21.3418 32.7324 22.2471 31.458 22.2383 28.6367C22.2383 25.8594 21.3418 24.5322 19.9883 24.5234C18.6436 24.5322 17.7471 25.8594 17.7383 28.6367ZM26.8789 32.8555V30.5176L32.1523 22.2734H35.9316V30.5H37.4785V32.8555H35.9316V35H33.0664V32.8555H26.8789ZM29.8672 30.5H33.1191V25.4551H33.0137L29.8672 30.3945V30.5Z" fill="#3778FE"/>
<defs>
<linearGradient id="paint0_linear_1783_5863" x1="3.5" y1="0" x2="58.8941" y2="24.4794" gradientUnits="userSpaceOnUse">
<stop stop-color="#3C7AF9"/>
<stop offset="1" stop-color="#2061E7"/>
</linearGradient>
</defs>
</svg>
