<svg width="52" height="51" viewBox="0 0 52 51" fill="none" xmlns="http://www.w3.org/2000/svg">
<path d="M3.5 24.0416C3.5 21.4709 4.59933 19.0228 6.52073 17.3149L22.0138 3.54327C24.2871 1.52255 27.7129 1.52255 29.9862 3.54327L45.4793 17.3149C47.4007 19.0228 48.5 21.4709 48.5 24.0416V39C48.5 43.9706 44.4706 48 39.5 48H12.5C7.52944 48 3.5 43.9706 3.5 39V24.0416Z" stroke="url(#paint0_linear_1783_5849)" stroke-width="3"/>
<path d="M19.9365 35.1758C16.6318 35.1758 14.6104 32.8115 14.6104 28.6367C14.6104 24.4619 16.6318 22.0977 19.9365 22.0977C23.2412 22.0977 25.2715 24.4795 25.2627 28.6367C25.2715 32.8203 23.2412 35.1758 19.9365 35.1758ZM17.6865 28.6367C17.6777 31.458 18.583 32.7324 19.9365 32.7324C21.29 32.7324 22.1953 31.458 22.1865 28.6367C22.1865 25.8594 21.29 24.5322 19.9365 24.5234C18.5918 24.5322 17.6953 25.8594 17.6865 28.6367ZM27.0029 35V32.8379L31.6436 28.7598C32.7246 27.7754 33.3398 27.125 33.3486 26.1582C33.3398 25.0947 32.5576 24.4443 31.4854 24.4355C30.3955 24.4443 29.666 25.1299 29.6748 26.2812H26.8271C26.8184 23.7148 28.6992 22.0977 31.5029 22.0977C34.3682 22.0977 36.2402 23.6533 36.249 25.9297C36.2402 27.3887 35.5195 28.6104 32.7686 31.0098L31.1689 32.4863V32.5742H36.4072V35H27.0029Z" fill="#3778FE"/>
<defs>
<linearGradient id="paint0_linear_1783_5849" x1="3.5" y1="0" x2="58.8941" y2="24.4794" gradientUnits="userSpaceOnUse">
<stop stop-color="#3C7AF9"/>
<stop offset="1" stop-color="#2061E7"/>
</linearGradient>
</defs>
</svg>
