<svg width="52" height="51" viewBox="0 0 52 51" fill="none" xmlns="http://www.w3.org/2000/svg">
<path d="M3.5 24.0416C3.5 21.4709 4.59933 19.0228 6.52073 17.3149L22.0138 3.54327C24.2871 1.52255 27.7129 1.52255 29.9862 3.54327L45.4793 17.3149C47.4007 19.0228 48.5 21.4709 48.5 24.0416V39C48.5 43.9706 44.4706 48 39.5 48H12.5C7.52944 48 3.5 43.9706 3.5 39V24.0416Z" stroke="url(#paint0_linear_1783_5856)" stroke-width="3"/>
<path d="M19.6816 35.1758C16.377 35.1758 14.3555 32.8115 14.3555 28.6367C14.3555 24.4619 16.377 22.0977 19.6816 22.0977C22.9863 22.0977 25.0166 24.4795 25.0078 28.6367C25.0166 32.8203 22.9863 35.1758 19.6816 35.1758ZM17.4316 28.6367C17.4229 31.458 18.3281 32.7324 19.6816 32.7324C21.0352 32.7324 21.9404 31.458 21.9316 28.6367C21.9316 25.8594 21.0352 24.5322 19.6816 24.5234C18.3369 24.5322 17.4404 25.8594 17.4316 28.6367ZM31.582 35.1758C28.6816 35.1758 26.6162 33.5762 26.5898 31.291H29.6133C29.6396 32.1436 30.4658 32.7236 31.5996 32.7324C32.7246 32.7236 33.5332 32.0908 33.5156 31.168C33.5332 30.2451 32.6719 29.5947 31.3359 29.5859H30.1055V27.4414H31.3359C32.4961 27.4502 33.3047 26.8262 33.3047 25.9121C33.3047 25.0508 32.6191 24.4443 31.5996 24.4355C30.5537 24.4443 29.7363 25.042 29.7188 25.9297H26.8359C26.8711 23.6709 28.875 22.0977 31.6172 22.0977C34.333 22.0977 36.1963 23.6621 36.1875 25.7363C36.1963 27.1602 35.1592 28.1533 33.6914 28.373V28.4609C35.6426 28.6982 36.6709 29.8145 36.6621 31.3965C36.6709 33.6025 34.5527 35.1758 31.582 35.1758Z" fill="#3778FE"/>
<defs>
<linearGradient id="paint0_linear_1783_5856" x1="3.5" y1="0" x2="58.8941" y2="24.4794" gradientUnits="userSpaceOnUse">
<stop stop-color="#3C7AF9"/>
<stop offset="1" stop-color="#2061E7"/>
</linearGradient>
</defs>
</svg>
