<svg width="150" height="30" viewBox="0 0 150 30" fill="none" xmlns="http://www.w3.org/2000/svg">
<path d="M2.01642 12.3001C2.01642 11.3967 2.39418 10.5262 3.084 9.91854L10.8198 2.9054C12.0352 1.80497 13.9076 1.80497 15.123 2.9054L22.8916 9.91854C23.565 10.5262 23.9592 11.3967 23.9592 12.3001V24.7003C23.9592 26.4742 22.5139 27.9195 20.74 27.9195H5.21915C3.44533 27.9195 2 26.4742 2 24.7003V12.3001H2.01642Z" fill="#3778FE"/>
<path d="M25.8486 6.91302C25.8486 4.48224 28.4272 2.93836 30.5788 4.07163L35.309 6.60096C36.2616 7.11011 37.3949 7.11011 38.331 6.60096L43.0612 4.07163C45.1964 2.92193 47.7914 4.48224 47.7914 6.91302V24.7005C47.7914 26.4743 46.3461 27.9196 44.5723 27.9196H29.0678C27.294 27.9196 25.8486 26.4743 25.8486 24.7005V6.91302Z" fill="#00CBC4"/>
<path d="M99.3313 3.87109H96.2148V27.7637H99.3313V3.87109Z" fill="#3778FE" stroke="#3778FE" stroke-width="0.5"/>
<path d="M55.208 4.02686V27.6079H67.0764V4.02686H55.208ZM64.0639 24.9849H58.2985V6.52H64.0898V24.9849H64.0639Z" fill="#3778FE" stroke="#3778FE" stroke-width="0.5"/>
<path d="M76.8671 12.1556H74.1921V3.87109H71.4912V27.7637H74.1921V14.7267H76.8671V12.1556Z" fill="#3778FE" stroke="#3778FE" stroke-width="0.5"/>
<path d="M122.705 3.87109H120.004V19.9727H106.525V17.3497H103.824V27.7897H122.731V3.87109H122.705ZM120.004 25.2706H106.525V22.2321H120.004V25.2706Z" fill="#3778FE" stroke="#3778FE" stroke-width="0.5"/>
<path d="M114.654 3.94873H102.733V6.5977H110.628L102.733 12.4929V15.6613L109.018 11.0126L114.81 15.5574V12.415L111.122 9.53234L114.654 6.90934V3.94873Z" fill="#3778FE" stroke="#3778FE" stroke-width="0.5"/>
<path d="M148 11.7401H145.326V3.87109H142.729V27.7637H145.326V14.3891H148V11.7401Z" fill="#3778FE" stroke="#3778FE" stroke-width="0.5"/>
<path d="M131.068 4.02686L125.718 27.6858H128.523L132.055 11.7141H132.938L132.963 11.8958L136.469 27.6858H139.196L133.795 4.02686H131.068Z" fill="#3778FE" stroke="#3778FE" stroke-width="0.5"/>
<path d="M86.7882 3.87109H84.3469C81.3863 3.87109 78.9971 6.26036 78.9971 9.22097V22.4139C78.9971 25.3745 81.3863 27.7637 84.3469 27.7637H86.7882C89.7488 27.7637 92.138 25.3745 92.138 22.4139V9.22097C92.138 6.26036 89.7488 3.87109 86.7882 3.87109ZM89.4111 21.7906C89.4111 23.6085 87.9568 25.0628 86.1389 25.0628H85.0222C83.2043 25.0628 81.7499 23.6085 81.7499 21.7906V9.87022C81.7499 8.05231 83.2043 6.59797 85.0222 6.59797H86.1389C87.9568 6.59797 89.4111 8.05231 89.4111 9.87022V21.7906Z" fill="#3778FE" stroke="#3778FE" stroke-width="0.5"/>
</svg>
